<svg xmlns="http://www.w3.org/2000/svg" viewBox="0 0 100 100">
  <defs>
    <linearGradient id="treeGradient" x1="0%" y1="0%" x2="100%" y2="100%">
      <stop offset="0%" style="stop-color:#22c55e;stop-opacity:1" />
      <stop offset="100%" style="stop-color:#16a34a;stop-opacity:1" />
    </linearGradient>
  </defs>
  
  <!-- 大树 -->
  <path d="M30 20 L50 5 L70 20 L65 35 L55 30 L50 40 L45 30 L35 35 Z" fill="url(#treeGradient)"/>
  
  <!-- 小树 -->
  <path d="M15 35 L25 25 L35 35 L30 45 L25 40 L25 50 L20 45 L20 50 Z" fill="url(#treeGradient)"/>
  
  <!-- 树干 -->
  <rect x="48" y="40" width="4" height="15" fill="#8b5cf6"/>
  <rect x="23" y="50" width="4" height="10" fill="#8b5cf6"/>
  
  <!-- 人物 -->
  <circle cx="80" cy="45" r="3" fill="#22c55e"/>
  <rect x="78" y="48" width="4" height="8" fill="#22c55e"/>
  <rect x="76" y="52" width="2" height="6" fill="#22c55e"/>
  <rect x="82" y="52" width="2" height="6" fill="#22c55e"/>
  
  <!-- 地面 -->
  <ellipse cx="50" cy="65" rx="45" ry="5" fill="#86efac" opacity="0.6"/>
</svg>
